<svg xmlns="http://www.w3.org/2000/svg" width="1440" height="820" viewBox="0 0 1440 820">
<defs><marker id="arrow" markerWidth="8" markerHeight="8" refX="7" refY="4" orient="auto-start-reverse"><path d="M0 0L8 4 0 8" fill="none" stroke="#769166" stroke-width="1.5"/></marker></defs>
<rect width="1440" height="820" fill="#f5f7ef"/>
<g font-family="Arial,sans-serif" fill="#244735"><text x="70" y="70" font-size="15" letter-spacing="4">PLANT CARE / SYSTEM ARCHITECTURE</text><text x="70" y="142" font-size="46">From a virtual leaf to a cloud decision.</text><text x="70" y="183" font-size="20" fill="#819175">Authenticated telemetry. Persistent history. Bounded watering.</text></g>
<g fill="#fff" stroke="#dce5d3" stroke-width="2"><rect x="70" y="290" width="280" height="175" rx="18"/><rect x="455" y="290" width="350" height="175" rx="18"/><rect x="910" y="290" width="440" height="175" rx="18"/><rect x="455" y="570" width="350" height="150" rx="18"/><rect x="910" y="570" width="440" height="150" rx="18"/></g>
<g fill="#244735" font-family="Arial,sans-serif"><text x="98" y="330" font-size="12" letter-spacing="2">01 / DEVICE</text><text x="98" y="373" font-size="27">Virtual sensors</text><text x="98" y="409" font-size="16" fill="#839376">Soil · Air · Light · Water tank</text><text x="98" y="437" font-size="14" fill="#839376">Built-in + optional Python / ESP32</text>
<text x="485" y="330" font-size="12" letter-spacing="2">02 / CLOUD APPLICATION</text><text x="485" y="373" font-size="27">FastAPI + automation</text><text x="485" y="409" font-size="16" fill="#839376">Validate → Persist → Decide</text><text x="485" y="437" font-size="14" fill="#839376">Private accounts / device keys / heartbeat</text>
<text x="940" y="330" font-size="12" letter-spacing="2">03 / MONITORING</text><text x="940" y="373" font-size="27">React dashboard</text><text x="940" y="409" font-size="16" fill="#839376">Live state · Charts · Alerts · Controls</text><text x="940" y="437" font-size="14" fill="#839376">Same-origin API polling every 3 seconds</text>
<text x="485" y="610" font-size="12" letter-spacing="2">PERSISTENCE</text><text x="485" y="653" font-size="25">SQLite / PostgreSQL</text><text x="485" y="686" font-size="15" fill="#839376">Readings · Devices · Events · Alerts · Users</text>
<text x="940" y="610" font-size="12" letter-spacing="2">CONTROL CONSTRAINTS</text><text x="940" y="653" font-size="25">Short commands. Local cutoff.</text><text x="940" y="686" font-size="15" fill="#839376">15 sec maximum · 60 sec cooldown · Tank lockout</text></g>
<g stroke="#769166" stroke-width="2" fill="none" marker-end="url(#arrow)"><path d="M350 350H455"/><path d="M455 420H350"/><path d="M910 350H805"/><path d="M805 420H910"/><path d="M630 465V570"/><path d="M805 645H910"/></g>
<g font-family="Arial,sans-serif" font-size="12" text-anchor="middle" fill="#869777"><text x="403" y="332">HTTPS JSON</text><text x="403" y="450">Command</text><text x="857" y="332">Session</text><text x="857" y="450">State</text><text x="692" y="524">Transaction</text></g>
<text x="70" y="780" font-family="Arial,sans-serif" fill="#91a084" font-size="13">Implemented locally with synthetic sensors. Cloud deployment configuration included; hosted infrastructure is not claimed as verified.</text></svg>
